<svg width="398" height="513" xmlns="http://www.w3.org/2000/svg" data-name="Layer 1">

 <g>
  <title>Layer 1</title>
  <circle id="svg_1" fill="#6c63ff" r="26.43632" cy="325.96389" cx="347.1322"/>
  <polygon id="svg_2" fill="#fff" points="344.6125246286392,337.12299096679726 336.7005373239517,326.95001733398476 341.30151998996735,323.37100732421914 345.0485292673111,328.1879934082035 357.7045351266861,314.8270009765629 361.93753683567047,318.8370107421879 344.6125246286392,337.12299096679726 "/>
  <path id="svg_3" fill="#fff" d="m815.30474,84l-393,0l0,-84l393,0l0,84z"/>
  <circle id="svg_4" fill="#6c63ff" r="21.33847" cy="42.00001" cx="510.229"/>
  <path id="svg_5" fill="#3f3d56" d="m559.51066,27.77435a3.55641,3.55641 0 0 0 0,7.11282l259.65936,0a3.55642,3.55642 0 0 0 0,-7.11282l-259.65936,0z"/>
  <path id="svg_6" fill="#3f3d56" d="m559.51066,49.11277a3.55641,3.55641 0 0 0 -0.015,7.11281l164.15936,0a3.55641,3.55641 0 1 0 0,-7.11281l-164.14436,0z"/>
  <path id="svg_7" fill="#ccc" d="m852.30474,84l-393,0l0,-84l393,0l0,84zm-387,-6l381,0l0,-72l-381,0l0,72z"/>
  <path id="svg_8" fill="#fff" d="m1077.30474,281l-393,0l0,-84l393,0l0,84z"/>
  <circle id="svg_9" fill="#e6e6e6" r="21.33847" cy="147.00001" cx="510.229"/>
  <path id="svg_10" fill="#e6e6e6" d="m559.51066,132.77435a3.55641,3.55641 0 0 0 0,7.11282l259.65936,0a3.55642,3.55642 0 0 0 0,-7.11282l-259.65936,0z"/>
  <path id="svg_11" fill="#e6e6e6" d="m559.51066,154.11277a3.55641,3.55641 0 0 0 -0.015,7.11281l164.15936,0a3.55641,3.55641 0 1 0 0,-7.11281l-164.14436,0z"/>
  <path id="svg_12" fill="#e6e6e6" d="m852.30474,189l-393,0l0,-84l393,0l0,84zm-387,-6l381,0l0,-72l-381,0l0,72z"/>
  <path stroke="null" id="svg_13" fill="#fff" d="m828.00552,166l-377,0l0,-168l377,0l0,168z"/>
  <circle id="svg_14" fill="#e6e6e6" r="21.33847" cy="252.00001" cx="510.229"/>
  <path id="svg_15" fill="#e6e6e6" d="m559.51066,237.77435a3.55641,3.55641 0 0 0 0,7.11282l259.65936,0a3.55642,3.55642 0 0 0 0,-7.11282l-259.65936,0z"/>
  <path id="svg_16" fill="#e6e6e6" d="m559.51066,259.11277a3.55641,3.55641 0 0 0 -0.015,7.11281l164.15936,0a3.55641,3.55641 0 1 0 0,-7.11281l-164.14436,0z"/>
  <path id="svg_17" fill="#e6e6e6" d="m852.00552,294l-393,0l0,-84l393,0l0,84zm-387,-6l381,0l0,-72l-381,0l0,72z"/>
  <path id="svg_18" fill="#ffb8b8" d="m200.76358,313.92923a9.97931,9.97931 0 0 1 3.22535,-14.95832l-2.08391,-22.70907l13.49137,-4.63223l2.49246,32.11093a10.03341,10.03341 0 0 1 -17.12527,10.18869z"/>
  <path id="svg_19" fill="#ccc" d="m215.24707,183.59235s9.25835,-19.42981 17.48513,-12.59513s-11.2788,64.28457 -11.2788,64.28457l-2.96666,55.77082l-15.63538,-1.5628l-4.42059,-54.336l16.8163,-51.56146z"/>
  <polygon id="svg_20" fill="#ffb8b8" points="91.06152975559235,471.047002197266 102.66753256320953,480.4419912109379 144.4285341501236,440.1460012207035 127.29952871799469,426.2800039062504 91.06152975559235,471.047002197266 "/>
  <path id="svg_21" fill="#2f2e41" d="m91.16815,464.86121l22.85715,18.50239l0.00092,0.00075a18.74161,18.74161 0 0 1 2.77431,26.35741l-0.38318,0.47334l-37.42364,-30.29388l12.17444,-15.04001z"/>
  <polygon id="svg_22" fill="#ffb8b8" points="252.36252462863922,497.12701928710976 267.2945314645767,497.12701928710976 274.3985353708267,439.5300039062504 252.35953390598297,439.5310109863285 252.36252462863922,497.12701928710976 "/>
  <path id="svg_23" fill="#2f2e41" d="m248.55325,492.25209l29.40727,-0.00118l0.00119,0a18.74161,18.74161 0 0 1 18.74062,18.74031l0,0.609l-48.14818,0.00178l-0.0009,-19.34991z"/>
  <path id="svg_24" fill="#2f2e41" d="m278.56431,227.11s28.01383,34.1038 21.92386,68.2076s-10.96193,59.68164 -10.96193,59.68164l-9.74394,76.73354s3.654,20.89769 -1.218,26.28275c0,0 7.308,12.693 -6.09,17.565s-20.627,-1.68313 -20.627,-1.68313s-9.82287,-14.15077 -3.7329,-17.80475l2.56545,-150.58774l-97.56883,127.44589s-1.79342,15.50264 -14.29463,15.66827l-14.93719,11.12757l-17.0519,-9.744l8.52595,-10.96193s-4.872,-12.17993 6.09,-14.61591l63.33562,-82.82351l15.83391,-42.62975s8.52595,-32.8858 31.66781,-46.28372l0,-14.25622l46.28372,-11.3216z"/>
  <path id="svg_25" fill="#ccc" d="m230.45359,168.03737l0,0a23.25794,23.25794 0 0 1 30.656,-4.32849l1.01179,0.67453l0,0a89.77768,89.77768 0 0 1 21.01644,43.27059l4.56143,24.937l-57.24566,12.4005l-13.42025,-46.284a26.14871,26.14871 0 0 1 13.42023,-30.67011l0.00002,-0.00002z"/>
  <path id="svg_26" fill="#ffb8b8" d="m324.5047,319.23111a11.42107,11.42107 0 0 1 -6.51527,-16.25582l-16.51369,-20.21048l9.83428,-13.03081l22.91966,28.86864a11.483,11.483 0 0 1 -9.725,20.62849l0.00002,-0.00002z"/>
  <path id="svg_27" fill="#ccc" d="m254.81345,186.30727s-3.654,-24.35986 8.526,-23.14187s30.44981,68.2076 30.44981,68.2076l32.88576,54.80967l-15.83391,8.526l-38.97576,-48.71971l-17.0519,-59.68169z"/>
  <path id="svg_28" fill="#2f2e41" d="m277.11768,150.69418l-58,0a4.50508,4.50508 0 0 1 -4.5,-4.5l0,-25a33.5,33.5 0 0 1 67,0l0,25a4.50508,4.50508 0 0 1 -4.5,4.5z"/>
  <circle id="svg_29" fill="#ffb8b8" r="24.56103" cy="125.55119" cx="255.00159"/>
  <path id="svg_30" fill="#2f2e41" d="m289.54302,123.69418l-30.90968,0l-0.317,-5.0918l-1.58477,5.0918l-4.75942,0l-0.62812,-10.0918l-3.141,10.0918l-9.20925,0l0,-0.5c0,-14.61231 10.36059,-26.5 23.09557,-26.5l4.35791,0c12.735,0 23.09578,11.88769 23.09578,26.5l-0.00002,0.5z"/>
  <path id="svg_31" fill="#2f2e41" d="m259.91255,155.36093a7.43613,7.43613 0 0 1 -1.12823,-0.087l-36.79061,-5.66667l0,-38.31986a14.75984,14.75984 0 0 1 14.75984,-14.75984l25.73955,0l-1.00268,1.02053c-13.9504,14.20291 -3.4404,37.23312 4.06605,49.69691a4.9119,4.9119 0 0 1 -0.49909,5.82127a6.68354,6.68354 0 0 1 -5.14483,2.29466z"/>
  <circle id="svg_32" fill="#6c63ff" r="26.43632" cy="41.96389" cx="905.1322"/>
  <polygon id="svg_33" fill="#fff" points="902.6125246286392,53.12300622558632 894.7005373239517,42.950005889892964 899.3015505075455,39.37100350952187 903.0485597848892,44.18800485229531 915.704504609108,30.82700479126015 919.9375368356705,34.83700692749062 902.6125246286392,53.12300622558632 "/>
  <path id="svg_34" fill="#ccc" d="m382.00552,512.801l-381,0a1,1 0 1 1 0,-2l381,0a1,1 0 0 1 0,2z"/>
  <polyline stroke-linecap="round" id="svg_35" points="164.00552999973297,74.00000512695351 " opacity="NaN" stroke="#000" fill="none"/>
  <path stroke="null" id="svg_36" fill="#fff" d="m827.00552,323l-377,0l0,-168l377,0l0,168z"/>
 </g>
</svg>